# Blender v2.78 (sub 0) OBJ File: '6.blend'
# www.blender.org
mtllib Mustache_01.mtl
o Mustache_01_Cube.026
v -6.512492 0.724113 2.708452
v -7.626286 8.307068 2.708452
v -6.512492 0.724113 -2.708452
v -7.626286 8.307068 -2.708452
v -3.152714 0.515373 -2.982826
v -3.151112 9.486266 -2.982826
v -3.152714 0.515373 2.982826
v -3.151112 9.486266 2.982826
v -10.505539 1.040710 2.019450
v -12.604828 5.772741 2.019450
v -12.604828 5.772741 -2.019450
v -10.505539 1.040710 -2.019450
v -13.999558 -0.761173 1.454206
v -15.258798 3.006675 1.454206
v -15.258798 3.006675 -1.454207
v -13.999558 -0.761173 -1.454207
v -18.968092 -0.450981 1.091234
v -17.778246 2.314286 1.091234
v -17.778246 2.314286 -1.091234
v -18.968092 -0.450981 -1.091234
v -21.442793 2.530432 0.737429
v -19.281237 3.300383 0.737429
v -19.281237 3.300384 -0.737428
v -21.442793 2.530432 -0.737428
v -20.246180 5.165617 0.000001
v 6.512494 0.724113 2.708452
v 7.626287 8.307068 2.708452
v 6.512494 0.724113 -2.708452
v 7.626287 8.307068 -2.708452
v 0.000000 2.440490 2.492992
v 0.000000 7.989010 2.492992
v 0.000000 2.440490 -2.492992
v 0.000000 7.989010 -2.492992
v 3.152715 0.515373 -2.982826
v 3.151112 9.486266 -2.982826
v 3.152715 0.515373 2.982826
v 3.151112 9.486266 2.982826
v 10.505539 1.040710 2.019450
v 12.604827 5.772741 2.019450
v 12.604827 5.772741 -2.019450
v 10.505539 1.040710 -2.019450
v 13.999559 -0.761173 1.454206
v 15.258799 3.006675 1.454206
v 15.258799 3.006675 -1.454207
v 13.999559 -0.761173 -1.454207
v 18.968094 -0.450981 1.091234
v 17.778246 2.314286 1.091234
v 17.778246 2.314286 -1.091234
v 18.968094 -0.450981 -1.091234
v 21.442795 2.530432 0.737429
v 19.281239 3.300383 0.737429
v 19.281239 3.300384 -0.737428
v 21.442795 2.530432 -0.737428
v 20.246181 5.165617 0.000001
vn -0.1427 -0.0372 0.9891
vn -0.0907 0.0860 0.9922
vn 0.1536 -0.0000 -0.9881
vn 0.5211 -0.8535 0.0000
vn -0.2548 0.9670 0.0000
vn 0.4292 0.9032 0.0000
vn -0.0693 -0.0047 0.9976
vn 0.1536 -0.0000 0.9881
vn -0.0693 -0.0047 -0.9976
vn -0.7695 -0.6387 -0.0000
vn -0.4537 0.8912 0.0000
vn -0.0790 -0.9969 0.0000
vn -0.2650 0.9643 0.0000
vn -0.1427 -0.0372 -0.9891
vn -0.7216 0.6923 0.0000
vn -0.0964 -0.0010 -0.9953
vn -0.1405 -0.0555 -0.9885
vn -0.9105 0.4135 0.0000
vn -0.0623 -0.9981 0.0000
vn -0.1405 -0.0555 0.9885
vn 0.5486 0.8361 0.0000
vn -0.1121 0.3147 0.9426
vn -0.1121 0.3147 -0.9426
vn -0.0964 -0.0010 0.9953
vn -0.0907 0.0860 -0.9922
vn 0.8882 0.4595 0.0000
vn 0.4583 -0.8888 0.0000
vn -0.0620 -0.9981 0.0000
vn 0.1427 -0.0372 0.9891
vn 0.0907 0.0860 0.9922
vn -0.1536 -0.0000 -0.9881
vn -0.5211 -0.8535 0.0000
vn 0.2548 0.9670 0.0000
vn -0.4292 0.9032 0.0000
vn 0.0693 -0.0047 0.9976
vn -0.1536 -0.0000 0.9881
vn 0.0693 -0.0047 -0.9976
vn 0.7695 -0.6387 -0.0000
vn 0.4537 0.8912 0.0000
vn 0.0790 -0.9969 0.0000
vn 0.2650 0.9643 0.0000
vn 0.1427 -0.0372 -0.9891
vn 0.7216 0.6923 0.0000
vn 0.0964 -0.0010 -0.9953
vn 0.1405 -0.0555 -0.9885
vn 0.9105 0.4135 0.0000
vn 0.0623 -0.9981 0.0000
vn 0.1405 -0.0555 0.9885
vn -0.5486 0.8361 0.0000
vn 0.1121 0.3147 0.9426
vn 0.1121 0.3147 -0.9426
vn 0.0964 -0.0010 0.9953
vn 0.0907 0.0860 -0.9922
vn -0.8882 0.4595 0.0000
vn -0.4583 -0.8888 0.0000
vn 0.0620 -0.9981 0.0000
usemtl 795548
s off
f 1//1 2//1 10//1 9//1
f 17//2 18//2 22//2 21//2
f 5//3 6//3 33//3 32//3
f 5//4 32//4 30//4 7//4
f 6//5 4//5 2//5 8//5
f 33//6 6//6 8//6 31//6
f 7//7 8//7 2//7 1//7
f 30//8 31//8 8//8 7//8
f 3//9 4//9 6//9 5//9
f 17//10 21//10 24//10 20//10
f 4//11 11//11 10//11 2//11
f 3//12 1//12 9//12 12//12
f 15//13 19//13 18//13 14//13
f 4//14 3//14 12//14 11//14
f 10//15 11//15 15//15 14//15
f 15//16 16//16 20//16 19//16
f 11//17 12//17 16//17 15//17
f 21//18 25//18 24//18
f 13//19 17//19 20//19 16//19
f 9//20 10//20 14//20 13//20
f 18//21 19//21 23//21 22//21
f 21//22 22//22 25//22
f 23//23 24//23 25//23
f 13//24 14//24 18//24 17//24
f 19//25 20//25 24//25 23//25
f 22//26 23//26 25//26
f 9//27 13//27 16//27 12//27
f 3//28 5//28 7//28 1//28
f 26//29 38//29 39//29 27//29
f 46//30 50//30 51//30 47//30
f 34//31 32//31 33//31 35//31
f 34//32 36//32 30//32 32//32
f 35//33 37//33 27//33 29//33
f 33//34 31//34 37//34 35//34
f 36//35 26//35 27//35 37//35
f 30//36 36//36 37//36 31//36
f 28//37 34//37 35//37 29//37
f 46//38 49//38 53//38 50//38
f 29//39 27//39 39//39 40//39
f 28//40 41//40 38//40 26//40
f 44//41 43//41 47//41 48//41
f 29//42 40//42 41//42 28//42
f 39//43 43//43 44//43 40//43
f 44//44 48//44 49//44 45//44
f 40//45 44//45 45//45 41//45
f 50//46 53//46 54//46
f 42//47 45//47 49//47 46//47
f 38//48 42//48 43//48 39//48
f 47//49 51//49 52//49 48//49
f 50//50 54//50 51//50
f 52//51 54//51 53//51
f 42//52 46//52 47//52 43//52
f 48//53 52//53 53//53 49//53
f 51//54 54//54 52//54
f 38//55 41//55 45//55 42//55
f 28//56 26//56 36//56 34//56
